<mxfile host="app.diagrams.net" agent="Mozilla/5.0 (Windows NT 10.0; Win64; x64) AppleWebKit/537.36 (KHTML, like Gecko) Chrome/134.0.0.0 Safari/537.36" version="26.1.2">
  <diagram id="C5RBs43oDa-KdzZeNtuy" name="Page-1">
    <mxGraphModel dx="1583" dy="392" grid="1" gridSize="10" guides="1" tooltips="1" connect="1" arrows="1" fold="1" page="1" pageScale="1" pageWidth="827" pageHeight="1169" math="0" shadow="0">
      <root>
        <mxCell id="WIyWlLk6GJQsqaUBKTNV-0" />
        <mxCell id="WIyWlLk6GJQsqaUBKTNV-1" parent="WIyWlLk6GJQsqaUBKTNV-0" />
        <mxCell id="WIyWlLk6GJQsqaUBKTNV-2" value="" style="rounded=0;html=1;jettySize=auto;orthogonalLoop=1;fontSize=11;endArrow=block;endFill=0;endSize=8;strokeWidth=1;shadow=0;labelBackgroundColor=none;edgeStyle=orthogonalEdgeStyle;entryX=0.082;entryY=-0.161;entryDx=0;entryDy=0;entryPerimeter=0;" parent="WIyWlLk6GJQsqaUBKTNV-1" source="WIyWlLk6GJQsqaUBKTNV-3" target="2ApQXyq5M-1QXbXkGU03-6" edge="1">
          <mxGeometry relative="1" as="geometry">
            <mxPoint x="220.0000000000001" y="170" as="targetPoint" />
            <Array as="points">
              <mxPoint x="260" y="184" />
            </Array>
          </mxGeometry>
        </mxCell>
        <mxCell id="2ApQXyq5M-1QXbXkGU03-4" style="edgeStyle=orthogonalEdgeStyle;rounded=0;orthogonalLoop=1;jettySize=auto;html=1;entryX=0.5;entryY=0;entryDx=0;entryDy=0;" edge="1" parent="WIyWlLk6GJQsqaUBKTNV-1" source="WIyWlLk6GJQsqaUBKTNV-3" target="2ApQXyq5M-1QXbXkGU03-1">
          <mxGeometry relative="1" as="geometry">
            <Array as="points">
              <mxPoint x="230" y="120" />
              <mxPoint x="-260" y="120" />
            </Array>
          </mxGeometry>
        </mxCell>
        <mxCell id="2ApQXyq5M-1QXbXkGU03-15" style="edgeStyle=orthogonalEdgeStyle;rounded=0;orthogonalLoop=1;jettySize=auto;html=1;exitX=0.75;exitY=1;exitDx=0;exitDy=0;entryX=0.5;entryY=0;entryDx=0;entryDy=0;" edge="1" parent="WIyWlLk6GJQsqaUBKTNV-1" source="WIyWlLk6GJQsqaUBKTNV-3" target="2ApQXyq5M-1QXbXkGU03-9">
          <mxGeometry relative="1" as="geometry" />
        </mxCell>
        <mxCell id="2ApQXyq5M-1QXbXkGU03-16" style="edgeStyle=orthogonalEdgeStyle;rounded=0;orthogonalLoop=1;jettySize=auto;html=1;exitX=1;exitY=1;exitDx=0;exitDy=0;entryX=0.5;entryY=0;entryDx=0;entryDy=0;" edge="1" parent="WIyWlLk6GJQsqaUBKTNV-1" source="WIyWlLk6GJQsqaUBKTNV-3" target="2ApQXyq5M-1QXbXkGU03-10">
          <mxGeometry relative="1" as="geometry">
            <Array as="points">
              <mxPoint x="260" y="60" />
              <mxPoint x="260" y="125" />
              <mxPoint x="620" y="125" />
            </Array>
          </mxGeometry>
        </mxCell>
        <mxCell id="WIyWlLk6GJQsqaUBKTNV-3" value="User" style="rounded=1;whiteSpace=wrap;html=1;fontSize=12;glass=0;strokeWidth=1;shadow=0;" parent="WIyWlLk6GJQsqaUBKTNV-1" vertex="1">
          <mxGeometry x="170" y="20" width="120" height="40" as="geometry" />
        </mxCell>
        <mxCell id="2ApQXyq5M-1QXbXkGU03-1" value="User Registration details&amp;nbsp;" style="rounded=1;whiteSpace=wrap;html=1;fontSize=12;glass=0;strokeWidth=1;shadow=0;" vertex="1" parent="WIyWlLk6GJQsqaUBKTNV-1">
          <mxGeometry x="-320" y="280" width="120" height="40" as="geometry" />
        </mxCell>
        <mxCell id="2ApQXyq5M-1QXbXkGU03-6" value="Dashboard" style="rounded=1;whiteSpace=wrap;html=1;fontSize=12;glass=0;strokeWidth=1;shadow=0;" vertex="1" parent="WIyWlLk6GJQsqaUBKTNV-1">
          <mxGeometry x="250" y="270" width="120" height="40" as="geometry" />
        </mxCell>
        <mxCell id="2ApQXyq5M-1QXbXkGU03-57" style="edgeStyle=orthogonalEdgeStyle;rounded=0;orthogonalLoop=1;jettySize=auto;html=1;exitX=0.5;exitY=1;exitDx=0;exitDy=0;entryX=0.5;entryY=0;entryDx=0;entryDy=0;" edge="1" parent="WIyWlLk6GJQsqaUBKTNV-1" source="2ApQXyq5M-1QXbXkGU03-7" target="2ApQXyq5M-1QXbXkGU03-56">
          <mxGeometry relative="1" as="geometry" />
        </mxCell>
        <mxCell id="2ApQXyq5M-1QXbXkGU03-7" value="Search and Browse" style="rounded=1;whiteSpace=wrap;html=1;fontSize=12;glass=0;strokeWidth=1;shadow=0;" vertex="1" parent="WIyWlLk6GJQsqaUBKTNV-1">
          <mxGeometry x="20" y="270" width="120" height="40" as="geometry" />
        </mxCell>
        <mxCell id="2ApQXyq5M-1QXbXkGU03-8" style="edgeStyle=orthogonalEdgeStyle;rounded=0;orthogonalLoop=1;jettySize=auto;html=1;exitX=0.5;exitY=1;exitDx=0;exitDy=0;" edge="1" parent="WIyWlLk6GJQsqaUBKTNV-1" source="2ApQXyq5M-1QXbXkGU03-6" target="2ApQXyq5M-1QXbXkGU03-6">
          <mxGeometry relative="1" as="geometry" />
        </mxCell>
        <mxCell id="2ApQXyq5M-1QXbXkGU03-9" value="Expense Tracker" style="rounded=1;whiteSpace=wrap;html=1;fontSize=12;glass=0;strokeWidth=1;shadow=0;" vertex="1" parent="WIyWlLk6GJQsqaUBKTNV-1">
          <mxGeometry x="400" y="270" width="120" height="40" as="geometry" />
        </mxCell>
        <mxCell id="2ApQXyq5M-1QXbXkGU03-10" value="Newsletter Automation" style="rounded=1;whiteSpace=wrap;html=1;fontSize=12;glass=0;strokeWidth=1;shadow=0;" vertex="1" parent="WIyWlLk6GJQsqaUBKTNV-1">
          <mxGeometry x="560" y="270" width="120" height="40" as="geometry" />
        </mxCell>
        <mxCell id="2ApQXyq5M-1QXbXkGU03-14" style="edgeStyle=orthogonalEdgeStyle;rounded=0;orthogonalLoop=1;jettySize=auto;html=1;exitX=0.25;exitY=1;exitDx=0;exitDy=0;entryX=0.412;entryY=-0.118;entryDx=0;entryDy=0;entryPerimeter=0;" edge="1" parent="WIyWlLk6GJQsqaUBKTNV-1" source="WIyWlLk6GJQsqaUBKTNV-3" target="2ApQXyq5M-1QXbXkGU03-7">
          <mxGeometry relative="1" as="geometry">
            <Array as="points">
              <mxPoint x="260" y="60" />
              <mxPoint x="260" y="125" />
              <mxPoint x="69" y="125" />
            </Array>
          </mxGeometry>
        </mxCell>
        <mxCell id="2ApQXyq5M-1QXbXkGU03-24" style="edgeStyle=orthogonalEdgeStyle;rounded=0;orthogonalLoop=1;jettySize=auto;html=1;exitX=0.5;exitY=1;exitDx=0;exitDy=0;" edge="1" parent="WIyWlLk6GJQsqaUBKTNV-1">
          <mxGeometry relative="1" as="geometry">
            <mxPoint x="-259.8421052631579" y="410" as="targetPoint" />
            <mxPoint x="-260.0000000000002" y="360" as="sourcePoint" />
          </mxGeometry>
        </mxCell>
        <mxCell id="2ApQXyq5M-1QXbXkGU03-96" style="edgeStyle=orthogonalEdgeStyle;rounded=0;orthogonalLoop=1;jettySize=auto;html=1;exitX=0.5;exitY=1;exitDx=0;exitDy=0;" edge="1" parent="WIyWlLk6GJQsqaUBKTNV-1" source="2ApQXyq5M-1QXbXkGU03-25">
          <mxGeometry relative="1" as="geometry">
            <mxPoint x="-259.7692307692307" y="400" as="targetPoint" />
          </mxGeometry>
        </mxCell>
        <mxCell id="2ApQXyq5M-1QXbXkGU03-25" value="Stores in database" style="rounded=1;whiteSpace=wrap;html=1;" vertex="1" parent="WIyWlLk6GJQsqaUBKTNV-1">
          <mxGeometry x="-320" y="340" width="120" height="30" as="geometry" />
        </mxCell>
        <mxCell id="2ApQXyq5M-1QXbXkGU03-95" style="edgeStyle=orthogonalEdgeStyle;rounded=0;orthogonalLoop=1;jettySize=auto;html=1;exitX=0.5;exitY=1;exitDx=0;exitDy=0;entryX=0.5;entryY=0;entryDx=0;entryDy=0;" edge="1" parent="WIyWlLk6GJQsqaUBKTNV-1" source="2ApQXyq5M-1QXbXkGU03-27" target="2ApQXyq5M-1QXbXkGU03-42">
          <mxGeometry relative="1" as="geometry" />
        </mxCell>
        <mxCell id="2ApQXyq5M-1QXbXkGU03-27" value="Send verification mail" style="rounded=1;whiteSpace=wrap;html=1;" vertex="1" parent="WIyWlLk6GJQsqaUBKTNV-1">
          <mxGeometry x="-320" y="400" width="120" height="30" as="geometry" />
        </mxCell>
        <mxCell id="2ApQXyq5M-1QXbXkGU03-30" style="edgeStyle=orthogonalEdgeStyle;rounded=0;orthogonalLoop=1;jettySize=auto;html=1;exitX=0.5;exitY=1;exitDx=0;exitDy=0;" edge="1" parent="WIyWlLk6GJQsqaUBKTNV-1" source="2ApQXyq5M-1QXbXkGU03-29">
          <mxGeometry relative="1" as="geometry">
            <mxPoint x="-259.8421052631579" y="590" as="targetPoint" />
            <Array as="points">
              <mxPoint x="-260" y="550" />
              <mxPoint x="-260" y="550" />
            </Array>
          </mxGeometry>
        </mxCell>
        <mxCell id="2ApQXyq5M-1QXbXkGU03-46" style="edgeStyle=orthogonalEdgeStyle;rounded=0;orthogonalLoop=1;jettySize=auto;html=1;exitX=0.5;exitY=1;exitDx=0;exitDy=0;" edge="1" parent="WIyWlLk6GJQsqaUBKTNV-1" source="2ApQXyq5M-1QXbXkGU03-29">
          <mxGeometry relative="1" as="geometry">
            <mxPoint x="-259.909090909091" y="690" as="targetPoint" />
          </mxGeometry>
        </mxCell>
        <mxCell id="2ApQXyq5M-1QXbXkGU03-41" style="edgeStyle=orthogonalEdgeStyle;rounded=0;orthogonalLoop=1;jettySize=auto;html=1;exitX=0.5;exitY=1;exitDx=0;exitDy=0;" edge="1" parent="WIyWlLk6GJQsqaUBKTNV-1" source="2ApQXyq5M-1QXbXkGU03-29">
          <mxGeometry relative="1" as="geometry">
            <mxPoint x="-260.1428571428571" y="630.0000000000001" as="targetPoint" />
          </mxGeometry>
        </mxCell>
        <mxCell id="2ApQXyq5M-1QXbXkGU03-44" style="edgeStyle=orthogonalEdgeStyle;rounded=0;orthogonalLoop=1;jettySize=auto;html=1;exitX=0.5;exitY=1;exitDx=0;exitDy=0;" edge="1" parent="WIyWlLk6GJQsqaUBKTNV-1" source="2ApQXyq5M-1QXbXkGU03-32">
          <mxGeometry relative="1" as="geometry">
            <mxPoint x="-260.1428571428571" y="570" as="targetPoint" />
          </mxGeometry>
        </mxCell>
        <mxCell id="2ApQXyq5M-1QXbXkGU03-42" value="User verifies mail" style="rounded=1;whiteSpace=wrap;html=1;" vertex="1" parent="WIyWlLk6GJQsqaUBKTNV-1">
          <mxGeometry x="-320" y="460" width="120" height="30" as="geometry" />
        </mxCell>
        <mxCell id="2ApQXyq5M-1QXbXkGU03-48" style="edgeStyle=orthogonalEdgeStyle;rounded=0;orthogonalLoop=1;jettySize=auto;html=1;exitX=0.5;exitY=1;exitDx=0;exitDy=0;" edge="1" parent="WIyWlLk6GJQsqaUBKTNV-1" source="2ApQXyq5M-1QXbXkGU03-47">
          <mxGeometry relative="1" as="geometry">
            <mxPoint x="-259.909090909091" y="750" as="targetPoint" />
          </mxGeometry>
        </mxCell>
        <mxCell id="2ApQXyq5M-1QXbXkGU03-47" value="Checks credentials from database" style="rounded=1;whiteSpace=wrap;html=1;" vertex="1" parent="WIyWlLk6GJQsqaUBKTNV-1">
          <mxGeometry x="-320" y="630" width="120" height="30" as="geometry" />
        </mxCell>
        <mxCell id="2ApQXyq5M-1QXbXkGU03-51" style="edgeStyle=orthogonalEdgeStyle;rounded=0;orthogonalLoop=1;jettySize=auto;html=1;exitX=0;exitY=0.5;exitDx=0;exitDy=0;entryX=0;entryY=0.5;entryDx=0;entryDy=0;" edge="1" parent="WIyWlLk6GJQsqaUBKTNV-1" source="2ApQXyq5M-1QXbXkGU03-49" target="2ApQXyq5M-1QXbXkGU03-27">
          <mxGeometry relative="1" as="geometry" />
        </mxCell>
        <mxCell id="2ApQXyq5M-1QXbXkGU03-49" value="Email verified?" style="rounded=1;whiteSpace=wrap;html=1;" vertex="1" parent="WIyWlLk6GJQsqaUBKTNV-1">
          <mxGeometry x="-320" y="690" width="120" height="30" as="geometry" />
        </mxCell>
        <mxCell id="2ApQXyq5M-1QXbXkGU03-52" value="No" style="text;html=1;align=center;verticalAlign=middle;whiteSpace=wrap;rounded=0;" vertex="1" parent="WIyWlLk6GJQsqaUBKTNV-1">
          <mxGeometry x="-400" y="630" width="60" height="30" as="geometry" />
        </mxCell>
        <mxCell id="2ApQXyq5M-1QXbXkGU03-58" style="edgeStyle=orthogonalEdgeStyle;rounded=0;orthogonalLoop=1;jettySize=auto;html=1;exitX=0.5;exitY=1;exitDx=0;exitDy=0;" edge="1" parent="WIyWlLk6GJQsqaUBKTNV-1" source="2ApQXyq5M-1QXbXkGU03-56">
          <mxGeometry relative="1" as="geometry">
            <mxPoint x="79.85714285714289" y="340" as="targetPoint" />
          </mxGeometry>
        </mxCell>
        <mxCell id="2ApQXyq5M-1QXbXkGU03-56" value="Amadeus API" style="rounded=1;whiteSpace=wrap;html=1;fontSize=12;glass=0;strokeWidth=1;shadow=0;" vertex="1" parent="WIyWlLk6GJQsqaUBKTNV-1">
          <mxGeometry x="20" y="340" width="120" height="30" as="geometry" />
        </mxCell>
        <mxCell id="2ApQXyq5M-1QXbXkGU03-63" style="edgeStyle=orthogonalEdgeStyle;rounded=0;orthogonalLoop=1;jettySize=auto;html=1;exitX=0.5;exitY=1;exitDx=0;exitDy=0;" edge="1" parent="WIyWlLk6GJQsqaUBKTNV-1">
          <mxGeometry relative="1" as="geometry">
            <mxPoint x="79.70967741935488" y="400" as="targetPoint" />
            <mxPoint x="80" y="370" as="sourcePoint" />
          </mxGeometry>
        </mxCell>
        <mxCell id="2ApQXyq5M-1QXbXkGU03-65" style="edgeStyle=orthogonalEdgeStyle;rounded=0;orthogonalLoop=1;jettySize=auto;html=1;exitX=0.5;exitY=1;exitDx=0;exitDy=0;" edge="1" parent="WIyWlLk6GJQsqaUBKTNV-1" source="2ApQXyq5M-1QXbXkGU03-64">
          <mxGeometry relative="1" as="geometry">
            <mxPoint x="80.17647058823536" y="460" as="targetPoint" />
          </mxGeometry>
        </mxCell>
        <mxCell id="2ApQXyq5M-1QXbXkGU03-64" value="Booking module" style="rounded=1;whiteSpace=wrap;html=1;fontSize=12;glass=0;strokeWidth=1;shadow=0;" vertex="1" parent="WIyWlLk6GJQsqaUBKTNV-1">
          <mxGeometry x="20" y="400" width="120" height="30" as="geometry" />
        </mxCell>
        <mxCell id="2ApQXyq5M-1QXbXkGU03-66" value="Flights" style="rounded=1;whiteSpace=wrap;html=1;fontSize=12;glass=0;strokeWidth=1;shadow=0;" vertex="1" parent="WIyWlLk6GJQsqaUBKTNV-1">
          <mxGeometry x="20" y="460" width="120" height="30" as="geometry" />
        </mxCell>
        <mxCell id="2ApQXyq5M-1QXbXkGU03-69" value="" style="edgeStyle=orthogonalEdgeStyle;rounded=0;orthogonalLoop=1;jettySize=auto;html=1;exitX=0.25;exitY=1;exitDx=0;exitDy=0;" edge="1" parent="WIyWlLk6GJQsqaUBKTNV-1" source="2ApQXyq5M-1QXbXkGU03-64" target="2ApQXyq5M-1QXbXkGU03-68">
          <mxGeometry relative="1" as="geometry">
            <mxPoint x="-50" y="470" as="targetPoint" />
            <mxPoint x="50" y="430" as="sourcePoint" />
            <Array as="points">
              <mxPoint x="80" y="430" />
              <mxPoint x="80" y="440" />
            </Array>
          </mxGeometry>
        </mxCell>
        <mxCell id="2ApQXyq5M-1QXbXkGU03-68" value="Hotels" style="rounded=1;whiteSpace=wrap;html=1;fontSize=12;glass=0;strokeWidth=1;shadow=0;" vertex="1" parent="WIyWlLk6GJQsqaUBKTNV-1">
          <mxGeometry x="-110" y="460" width="120" height="30" as="geometry" />
        </mxCell>
        <mxCell id="2ApQXyq5M-1QXbXkGU03-72" value="Packages" style="rounded=1;whiteSpace=wrap;html=1;fontSize=12;glass=0;strokeWidth=1;shadow=0;" vertex="1" parent="WIyWlLk6GJQsqaUBKTNV-1">
          <mxGeometry x="160" y="460" width="120" height="30" as="geometry" />
        </mxCell>
        <mxCell id="2ApQXyq5M-1QXbXkGU03-74" style="edgeStyle=orthogonalEdgeStyle;rounded=0;orthogonalLoop=1;jettySize=auto;html=1;exitX=0.5;exitY=1;exitDx=0;exitDy=0;entryX=0.467;entryY=0.008;entryDx=0;entryDy=0;entryPerimeter=0;" edge="1" parent="WIyWlLk6GJQsqaUBKTNV-1" source="2ApQXyq5M-1QXbXkGU03-64" target="2ApQXyq5M-1QXbXkGU03-72">
          <mxGeometry relative="1" as="geometry">
            <Array as="points">
              <mxPoint x="80" y="440" />
              <mxPoint x="216" y="440" />
            </Array>
          </mxGeometry>
        </mxCell>
        <mxCell id="2ApQXyq5M-1QXbXkGU03-81" style="edgeStyle=orthogonalEdgeStyle;rounded=0;orthogonalLoop=1;jettySize=auto;html=1;exitX=0.5;exitY=1;exitDx=0;exitDy=0;entryX=0.5;entryY=0;entryDx=0;entryDy=0;" edge="1" parent="WIyWlLk6GJQsqaUBKTNV-1" source="2ApQXyq5M-1QXbXkGU03-75" target="2ApQXyq5M-1QXbXkGU03-80">
          <mxGeometry relative="1" as="geometry" />
        </mxCell>
        <mxCell id="2ApQXyq5M-1QXbXkGU03-86" style="edgeStyle=orthogonalEdgeStyle;rounded=0;orthogonalLoop=1;jettySize=auto;html=1;exitX=0;exitY=0.5;exitDx=0;exitDy=0;entryX=1;entryY=0.5;entryDx=0;entryDy=0;" edge="1" parent="WIyWlLk6GJQsqaUBKTNV-1" source="2ApQXyq5M-1QXbXkGU03-75" target="2ApQXyq5M-1QXbXkGU03-85">
          <mxGeometry relative="1" as="geometry" />
        </mxCell>
        <mxCell id="2ApQXyq5M-1QXbXkGU03-75" value="Safe for Women?" style="rounded=1;whiteSpace=wrap;html=1;fontSize=12;glass=0;strokeWidth=1;shadow=0;" vertex="1" parent="WIyWlLk6GJQsqaUBKTNV-1">
          <mxGeometry x="20" y="510" width="120" height="30" as="geometry" />
        </mxCell>
        <mxCell id="2ApQXyq5M-1QXbXkGU03-77" value="" style="endArrow=none;dashed=1;html=1;dashPattern=1 3;strokeWidth=2;rounded=0;entryX=0.371;entryY=1.075;entryDx=0;entryDy=0;entryPerimeter=0;" edge="1" parent="WIyWlLk6GJQsqaUBKTNV-1" target="2ApQXyq5M-1QXbXkGU03-72">
          <mxGeometry width="50" height="50" relative="1" as="geometry">
            <mxPoint x="100" y="510" as="sourcePoint" />
            <mxPoint x="150" y="460" as="targetPoint" />
          </mxGeometry>
        </mxCell>
        <mxCell id="2ApQXyq5M-1QXbXkGU03-78" value="" style="endArrow=none;dashed=1;html=1;dashPattern=1 3;strokeWidth=2;rounded=0;entryX=0.5;entryY=1;entryDx=0;entryDy=0;" edge="1" parent="WIyWlLk6GJQsqaUBKTNV-1" target="2ApQXyq5M-1QXbXkGU03-68">
          <mxGeometry width="50" height="50" relative="1" as="geometry">
            <mxPoint x="100" y="510" as="sourcePoint" />
            <mxPoint x="150" y="460" as="targetPoint" />
          </mxGeometry>
        </mxCell>
        <mxCell id="2ApQXyq5M-1QXbXkGU03-79" value="" style="endArrow=none;dashed=1;html=1;dashPattern=1 3;strokeWidth=2;rounded=0;entryX=0.596;entryY=1.049;entryDx=0;entryDy=0;entryPerimeter=0;" edge="1" parent="WIyWlLk6GJQsqaUBKTNV-1" target="2ApQXyq5M-1QXbXkGU03-66">
          <mxGeometry width="50" height="50" relative="1" as="geometry">
            <mxPoint x="100" y="510" as="sourcePoint" />
            <mxPoint x="150" y="460" as="targetPoint" />
          </mxGeometry>
        </mxCell>
        <mxCell id="2ApQXyq5M-1QXbXkGU03-88" style="edgeStyle=orthogonalEdgeStyle;rounded=0;orthogonalLoop=1;jettySize=auto;html=1;exitX=0.5;exitY=1;exitDx=0;exitDy=0;entryX=0.5;entryY=0;entryDx=0;entryDy=0;" edge="1" parent="WIyWlLk6GJQsqaUBKTNV-1" source="2ApQXyq5M-1QXbXkGU03-80">
          <mxGeometry relative="1" as="geometry">
            <mxPoint x="80" y="610" as="targetPoint" />
          </mxGeometry>
        </mxCell>
        <mxCell id="2ApQXyq5M-1QXbXkGU03-80" value="Confirm selection" style="rounded=1;whiteSpace=wrap;html=1;fontSize=12;glass=0;strokeWidth=1;shadow=0;" vertex="1" parent="WIyWlLk6GJQsqaUBKTNV-1">
          <mxGeometry x="20" y="560" width="120" height="30" as="geometry" />
        </mxCell>
        <mxCell id="2ApQXyq5M-1QXbXkGU03-85" value="Checks database" style="rounded=1;whiteSpace=wrap;html=1;fontSize=12;glass=0;strokeWidth=1;shadow=0;" vertex="1" parent="WIyWlLk6GJQsqaUBKTNV-1">
          <mxGeometry x="-130" y="510" width="120" height="30" as="geometry" />
        </mxCell>
        <mxCell id="2ApQXyq5M-1QXbXkGU03-90" style="edgeStyle=orthogonalEdgeStyle;rounded=0;orthogonalLoop=1;jettySize=auto;html=1;exitX=0.5;exitY=1;exitDx=0;exitDy=0;entryX=0.5;entryY=0;entryDx=0;entryDy=0;" edge="1" parent="WIyWlLk6GJQsqaUBKTNV-1" target="2ApQXyq5M-1QXbXkGU03-89">
          <mxGeometry relative="1" as="geometry">
            <mxPoint x="80" y="640" as="sourcePoint" />
          </mxGeometry>
        </mxCell>
        <mxCell id="2ApQXyq5M-1QXbXkGU03-89" value="Payment gateway" style="rounded=1;whiteSpace=wrap;html=1;fontSize=12;glass=0;strokeWidth=1;shadow=0;" vertex="1" parent="WIyWlLk6GJQsqaUBKTNV-1">
          <mxGeometry x="20" y="610" width="120" height="30" as="geometry" />
        </mxCell>
        <mxCell id="2ApQXyq5M-1QXbXkGU03-97" value="" style="edgeStyle=orthogonalEdgeStyle;rounded=0;orthogonalLoop=1;jettySize=auto;html=1;exitX=0.5;exitY=1;exitDx=0;exitDy=0;" edge="1" parent="WIyWlLk6GJQsqaUBKTNV-1" source="2ApQXyq5M-1QXbXkGU03-42" target="2ApQXyq5M-1QXbXkGU03-32">
          <mxGeometry relative="1" as="geometry">
            <mxPoint x="-260.1428571428571" y="570" as="targetPoint" />
            <mxPoint x="-260" y="490" as="sourcePoint" />
          </mxGeometry>
        </mxCell>
        <mxCell id="2ApQXyq5M-1QXbXkGU03-32" value="Registration Complete" style="rounded=1;whiteSpace=wrap;html=1;" vertex="1" parent="WIyWlLk6GJQsqaUBKTNV-1">
          <mxGeometry x="-320" y="510" width="120" height="30" as="geometry" />
        </mxCell>
        <mxCell id="2ApQXyq5M-1QXbXkGU03-98" value="" style="edgeStyle=orthogonalEdgeStyle;rounded=0;orthogonalLoop=1;jettySize=auto;html=1;exitX=0.5;exitY=1;exitDx=0;exitDy=0;" edge="1" parent="WIyWlLk6GJQsqaUBKTNV-1" source="2ApQXyq5M-1QXbXkGU03-32" target="2ApQXyq5M-1QXbXkGU03-29">
          <mxGeometry relative="1" as="geometry">
            <mxPoint x="-260.1428571428571" y="630.0000000000001" as="targetPoint" />
            <mxPoint x="-260" y="540" as="sourcePoint" />
          </mxGeometry>
        </mxCell>
        <mxCell id="2ApQXyq5M-1QXbXkGU03-29" value="Enter login credentials" style="rounded=1;whiteSpace=wrap;html=1;" vertex="1" parent="WIyWlLk6GJQsqaUBKTNV-1">
          <mxGeometry x="-320" y="570" width="120" height="30" as="geometry" />
        </mxCell>
        <mxCell id="2ApQXyq5M-1QXbXkGU03-102" value="" style="edgeStyle=orthogonalEdgeStyle;rounded=0;orthogonalLoop=1;jettySize=auto;html=1;exitX=0.5;exitY=1;exitDx=0;exitDy=0;" edge="1" parent="WIyWlLk6GJQsqaUBKTNV-1" source="2ApQXyq5M-1QXbXkGU03-49" target="2ApQXyq5M-1QXbXkGU03-54">
          <mxGeometry relative="1" as="geometry">
            <mxPoint x="-260" y="810" as="targetPoint" />
            <mxPoint x="-260" y="720" as="sourcePoint" />
          </mxGeometry>
        </mxCell>
        <mxCell id="2ApQXyq5M-1QXbXkGU03-54" value="Login succesful" style="rounded=1;whiteSpace=wrap;html=1;" vertex="1" parent="WIyWlLk6GJQsqaUBKTNV-1">
          <mxGeometry x="-320" y="750" width="120" height="30" as="geometry" />
        </mxCell>
        <mxCell id="2ApQXyq5M-1QXbXkGU03-103" value="yes" style="text;html=1;align=center;verticalAlign=middle;whiteSpace=wrap;rounded=0;" vertex="1" parent="WIyWlLk6GJQsqaUBKTNV-1">
          <mxGeometry x="-270" y="720" width="60" height="30" as="geometry" />
        </mxCell>
        <mxCell id="2ApQXyq5M-1QXbXkGU03-105" style="edgeStyle=orthogonalEdgeStyle;rounded=0;orthogonalLoop=1;jettySize=auto;html=1;exitX=0.5;exitY=1;exitDx=0;exitDy=0;entryX=0.498;entryY=-0.078;entryDx=0;entryDy=0;entryPerimeter=0;" edge="1" parent="WIyWlLk6GJQsqaUBKTNV-1" source="2ApQXyq5M-1QXbXkGU03-1" target="2ApQXyq5M-1QXbXkGU03-25">
          <mxGeometry relative="1" as="geometry" />
        </mxCell>
      </root>
    </mxGraphModel>
  </diagram>
</mxfile>
